<?xml version="1.0" encoding="UTF-8" standalone="no"?>
<!DOCTYPE svg  PUBLIC '-//W3C//DTD SVG 1.1//EN'  'http://www.w3.org/Graphics/SVG/1.1/DTD/svg11.dtd'>
<svg id="flash0.ai" style="enable-background:new 0 0 90.75 41.6" xmlns="http://www.w3.org/2000/svg" xml:space="preserve" height="41.6px" viewBox="0 0 90.75 41.6" width="90.75px" version="1.1" y="0px" x="0px" xmlns:xlink="http://www.w3.org/1999/xlink">
<symbol id="flash0.ai_x5F_5_x2F_Layer_12_x2F__x3C_Path_x3E_" viewBox="0 -9.55 6.745 9.55">
	<g id="Layer_1_3_">
			<linearGradient id="SVGID_1_" y2="2703.3" gradientUnits="userSpaceOnUse" x2="4308.2" gradientTransform="matrix(.9029 .4299 -.4299 .9029 -2721.6 -4296.4)" y1="2703.3" x1="4300.7">
			<stop stop-color="#D1C6C6" offset="0"/>
			<stop stop-color="#C9B3AF" offset=".9451"/>
			<stop stop-color="#C9B2AD" offset="1"/>
		</linearGradient>
		<path fill-rule="evenodd" clip-rule="evenodd" d="m6.7-5.55c0.133-1.3-0.034-2.633-0.5-4-0.267 2.6-1.1 4.667-2.5 6.2-1.4 1.6-2.633 2.717-3.7 3.35 0.7-0.2 1.5-0.55 2.4-1.05 1.767-1 3.083-2.284 3.95-3.85l0.35-0.65z" fill="url(#SVGID_1_)"/>
	</g>
</symbol>
<symbol id="flash0.ai_x5F_5_x2F_Layer_12_x2F__x3C_Path_x3E__x5F_0" viewBox="-0.084 -5.656 4.706 5.647">
	<g id="Layer_1_9_">
		<path fill-rule="evenodd" clip-rule="evenodd" d="m3.2-0.1c1.6 0.4 1.85-0.517 0.75-2.75-1.133-2.233-2.2-3.133-3.2-2.7-0.933 0.4-1.083 1.333-0.45 2.8s1.6 2.35 2.9 2.65z" fill="#fff"/>
	</g>
</symbol>
<symbol id="flash0.ai_x5F_5_x2F_Layer_12_x2F__x3C_Path_x3E__x5F_1" viewBox="0 -11 6.435 11">
	<g id="Layer_1_2_">
			<linearGradient id="SVGID_2_" y2="2697.5" gradientUnits="userSpaceOnUse" x2="4291.5" gradientTransform="matrix(.9035 .4286 -.4286 .9035 -2715.9 -4280.5)" y1="2697.5" x1="4283.4">
			<stop stop-color="#D1C6C6" offset="0"/>
			<stop stop-color="#C9B3AF" offset=".9451"/>
			<stop stop-color="#C9B2AD" offset="1"/>
		</linearGradient>
		<path fill-rule="evenodd" clip-rule="evenodd" d="m6.4-9.1c-0.867-0.867-1.683-1.5-2.45-1.9 0.5 1.067 0.75 2.2 0.75 3.4 0 1.333-0.35 2.55-1.05 3.65-1.233 1.933-2.45 3.25-3.65 3.95 1.767-0.767 3.25-1.933 4.45-3.5 1.5-1.967 2.15-3.833 1.95-5.6z" fill="url(#SVGID_2_)"/>
	</g>
</symbol>
<symbol id="flash0.ai_x5F_5_x2F_Layer_12_x2F__x3C_Path_x3E__x5F_1_x5F_0" viewBox="-0.012 -14.369 13.936 14.391">
	<g id="Layer_1_8_">
		<path fill-rule="evenodd" clip-rule="evenodd" d="m10.3-0.05c0.9-0.167 1.883-0.8 2.95-1.9 1.267-1.3 0.75-3.517-1.55-6.65-2.167-2.967-4.233-4.733-6.2-5.3-1.833-0.5-3.117-0.6-3.85-0.3-1.2 0.5-1.75 2-1.65 4.5 0.133 4.1 2.017 6.983 5.65 8.65 1.933 0.9 3.483 1.233 4.65 1z" fill="#fff"/>
	</g>
</symbol>
<symbol id="flash0.ai_x5F_5_x2F_Layer_12_x2F__x3C_Path_x3E__x5F_2" viewBox="0 -2.527 2.857 2.531">
	<g id="Layer_1_7_">
			<linearGradient id="SVGID_3_" y2="2707.3" gradientUnits="userSpaceOnUse" x2="4306.3" gradientTransform="matrix(.9029 .4299 -.4299 .9029 -2721.6 -4296.4)" y1="2707.3" x1="4301.7">
			<stop stop-color="#D1C6C6" offset="0"/>
			<stop stop-color="#C9B3AF" offset=".9451"/>
			<stop stop-color="#C9B2AD" offset="1"/>
		</linearGradient>
		<path fill-rule="evenodd" clip-rule="evenodd" d="m1.3-0.3c1.367-0.767 1.833-1.383 1.4-1.85-0.467-0.467-1.067-0.5-1.8-0.1-0.6 0.333-0.9 0.867-0.9 1.6s0.433 0.85 1.3 0.35z" fill="url(#SVGID_3_)"/>
	</g>
</symbol>
<symbol id="flash0.ai_x5F_5_x2F_Layer_12_x2F__x3C_Path_x3E__x5F_3" viewBox="-0.017 -1.512 1.719 1.558">
	<g id="Layer_1_6_">
			<linearGradient id="SVGID_4_" y2="2701.5" gradientUnits="userSpaceOnUse" x2="4287.4" gradientTransform="matrix(.9036 .4284 -.4284 .9036 -2715.1 -4278.2)" y1="2701.5" x1="4284.2">
			<stop stop-color="#D1C6C6" offset="0"/>
			<stop stop-color="#C9B3AF" offset=".9451"/>
			<stop stop-color="#C9B2AD" offset="1"/>
		</linearGradient>
		<path fill-rule="evenodd" clip-rule="evenodd" d="m1.1-0.1c0.566-0.367 0.733-0.733 0.5-1.1-0.267-0.333-0.65-0.4-1.15-0.2-0.467 0.2-0.583 0.533-0.35 1s0.567 0.567 1 0.3z" fill="url(#SVGID_4_)"/>
	</g>
</symbol>
<symbol id="flash0.ai_x5F_5_x2F_Layer_12_x2F__x3C_Path_x3E__x5F_4" viewBox="0.015 -2.711 4.16 2.717">
	<g id="Layer_1_5_">
			<linearGradient id="SVGID_5_" y2="2702.1" gradientUnits="userSpaceOnUse" x2="4294.5" gradientTransform="matrix(.9034 .4288 -.4288 .9034 -2716.9 -4283.3)" y1="2702.1" x1="4287.4">
			<stop stop-color="#D1C6C6" offset="0"/>
			<stop stop-color="#C9B3AF" offset=".9451"/>
			<stop stop-color="#C9B2AD" offset="1"/>
		</linearGradient>
		<path fill-rule="evenodd" clip-rule="evenodd" d="m1.7 0c1.167-0.033 1.917-0.367 2.25-1 0.3-0.5 0.3-0.967 0-1.4-0.2-0.3-0.6-0.383-1.2-0.25-0.6 0.167-1.267 0.517-2 1.05-0.7 0.5-0.9 0.917-0.6 1.25 0.267 0.267 0.783 0.383 1.55 0.35z" fill="url(#SVGID_5_)"/>
	</g>
</symbol>
<symbol id="flash0.ai_x5F_5_x2F_Layer_12_x2F__x3C_Path_x3E__x5F_5" viewBox="0 -18.45 23.226 18.45">
	<g id="Layer_1_4_">
		<path clip-rule="evenodd" d="m22.05 0c1.4-2.967 1.55-5.783 0.45-8.45-1.567-3.933-3.95-6.4-7.15-7.4-2-0.6-5.033-0.667-9.1-0.2-1.5 0.167-3.583-0.633-6.25-2.4 0.533 0.434 1.383 1.233 2.55 2.4 0.9 0.867 1.65 1.466 2.25 1.8 2.633 1.4 5.3 2.35 8 2.85 2.034 0.367 4.1 1.383 6.2 3.05 2.867 2.233 3.883 5.017 3.05 8.35z" fill-rule="evenodd"/>
	</g>
</symbol>
<linearGradient id="SVGID_6_" y2="18.94" gradientUnits="userSpaceOnUse" x2="26.675" gradientTransform="matrix(.9493 -.3143 .3143 .9493 -.00018433 -.00020862)" y1="18.94" x1="3.5488">
	<stop stop-color="#C9FF55" offset="0"/>
	<stop stop-color="#B4E74B" offset=".1922"/>
	<stop stop-color="#7FAB33" offset=".5961"/>
	<stop stop-color="#456918" offset="1"/>
</linearGradient>
<path fill-rule="evenodd" clip-rule="evenodd" d="m26.8 8.85c-1.833 3.4-3.433 5.4-4.8 6-0.167 0.066-2.333 1.917-6.5 5.55-3.167 2.767-4.6 3.284-4.3 1.55 0.3-1.667 0.966-2.784 2-3.35 0.667-0.367 2.033-0.967 4.1-1.8 1.8-0.933 3.133-1.8 4-2.6 0.833-0.8 1.5-1.784 2-2.95 0.367-0.9 0.633-1.733 0.8-2.5 0.167-0.667 0.3-1.117 0.4-1.35 0.9-1.667 1.65-2.717 2.25-3.15 0.467-0.3 1.217-0.417 2.25-0.35 0.433 0.033 0.55 0.25 0.35 0.65-0.367 0.567-0.65 1.017-0.85 1.35-0.7 1.133-1.267 2.117-1.7 2.95z" fill="url(#SVGID_6_)"/>
<linearGradient id="SVGID_7_" y2="18.67" gradientUnits="userSpaceOnUse" x2="37.85" gradientTransform="matrix(.9492 -.3146 .3146 .9492 .00036007 .00024688)" y1="18.67" x1="6.4561">
	<stop stop-color="#A1C246" offset="0"/>
	<stop stop-color="#89AB3A" offset=".298"/>
	<stop stop-color="#4D711C" offset=".9216"/>
	<stop stop-color="#456918" offset="1"/>
</linearGradient>
<path fill-rule="evenodd" clip-rule="evenodd" d="m38.65 4.75c-0.2 0.833-0.816 1.2-1.85 1.1l0.4 0.55c0 0.5-0.717 1.05-2.15 1.65-1.333 0.6-3.033 1.667-5.1 3.2-2.267 1.667-3.517 2.567-3.75 2.7-2.067 0.966-3.85 1.816-5.35 2.55-2.8 1.4-4.5 2.533-5.1 3.4-0.467 0.7-0.95 1.433-1.45 2.2-0.2 0.267-0.1-0.133 0.3-1.2 0.733-1.933 1.85-3.383 3.35-4.35 0.867-0.566 2.216-1.267 4.05-2.1 1.233-0.667 2.067-1.25 2.5-1.75 0.067-0.067 0.717-0.967 1.95-2.7 0.667-0.933 1.55-2.25 2.65-3.95 0.967-1.367 1.883-2.35 2.75-2.95 1.867-1.233 2.95-1.933 3.25-2.1 1.267-0.7 2.383-1.033 3.35-1 1 0.067 1.533 0.233 1.6 0.5 0.034 0.133-0.133 0.5-0.5 1.1l-1.55 2.15 0.45 0.05c0.267 0.1 0.333 0.417 0.2 0.95z" fill="url(#SVGID_7_)"/>
<linearGradient id="SVGID_8_" y2="15.3" gradientUnits="userSpaceOnUse" x2="37.961" gradientTransform="matrix(.9656 -.2599 .2599 .9656 .00054845 -.000020742)" y1="15.3" x1="14.686">
	<stop stop-color="#A5D146" offset="0"/>
	<stop stop-color="#8FB93B" offset=".2784"/>
	<stop stop-color="#577D20" offset=".8627"/>
	<stop stop-color="#496E19" offset="1"/>
</linearGradient>
<path fill-rule="evenodd" clip-rule="evenodd" d="m35.85 1.75c0.433-0.267 1.017-0.7 1.75-1.3-0.4 0.8-1.1 1.45-2.1 1.95l-3.2 2.1 0.75-0.45c0.6-0.3 1.1-0.517 1.5-0.65 0.833-0.233 1.717-0.566 2.65-1 0.6-0.233 1.167-0.533 1.7-0.9-0.5 0.5-1.15 0.95-1.95 1.35-0.333 0.167-0.917 0.4-1.75 0.7-0.833 0.267-1.517 0.534-2.05 0.8-0.633 0.3-1.333 0.883-2.1 1.75l-1 1.2 0.9-0.65c0.667-0.467 1.216-0.8 1.65-1 1.467-0.6 2.55-0.833 3.25-0.7 0.733 0.133 1.417 0.05 2.05-0.25-0.367 0.2-0.85 0.367-1.45 0.5-1.267 0.067-2.45 0.317-3.55 0.75-0.7 0.267-1.483 0.783-2.35 1.55l-1.1 1.05 3.1-1.8c1.1-0.3 1.85-0.367 2.25-0.2 0.333 0.067 0.867-0.017 1.6-0.25-0.3 0.133-0.8 0.25-1.5 0.35-1.6 0.3-2.917 0.783-3.95 1.45-1.6 1.033-3.333 2.517-5.2 4.45-0.733 0.767-2.083 1.583-4.05 2.45-0.836 0.358-1.486 0.625-1.95 0.8 0.664-0.269 2.297-1.169 4.9-2.7 1.033-0.633 1.934-1.6 2.7-2.9 0.1-0.167 0.367-0.75 0.8-1.75l0.85-1.8-0.45 1.45c-0.133 0.467-0.183 0.783-0.15 0.95 0.2-0.267 0.434-0.683 0.7-1.25 0.533-1.167 0.833-1.816 0.9-1.95l0.9-1.55-1 2.55 1.25-1.65c0.367-0.5 0.617-0.983 0.75-1.45l1.15-1.25-0.65 0.9-0.45 0.95 0.35-0.4c0.3-0.3 0.633-0.55 1-0.75l2.55-1.45z" fill="url(#SVGID_8_)"/>
<linearGradient id="SVGID_9_" y2="25.996" gradientUnits="userSpaceOnUse" x2="26.101" gradientTransform="matrix(.8736 -.4866 .4866 .8736 -.00012937 -.000040770)" y1="25.996" x1="8.7876">
	<stop stop-color="#A5D146" offset="0"/>
	<stop stop-color="#8FB93B" offset=".2784"/>
	<stop stop-color="#577D20" offset=".8627"/>
	<stop stop-color="#496E19" offset="1"/>
</linearGradient>
<path fill-rule="evenodd" clip-rule="evenodd" d="m37.75 11.4c-0.033 0.667-0.533 1.25-1.5 1.75-0.567 0.3-1.133 0.45-1.7 0.45l-0.65-0.15 0.05 0.75c-0.133 0.466-0.65 0.683-1.55 0.65-0.6 0-1.333-0.133-2.2-0.4-0.6-0.2-1.217-0.2-1.85 0-1.8 0.733-3.383 1.316-4.75 1.75-1.6-0.067-2.767 0.066-3.5 0.4-1.2 0.566-3.033 3.05-5.5 7.45-1.934 3.4-1.883 3 0.15-1.2 1.567-2.466 2.383-3.733 2.45-3.8 1.233-1.7 2.367-2.716 3.4-3.05 1.2-0.367 2.2-0.867 3-1.5 0.667-0.5 1.617-1.417 2.85-2.75 1.2-1.267 2.75-2.317 4.65-3.15 1.967-0.867 3.75-1.25 5.35-1.15 2.7 0.167 3.683 1 2.95 2.5-0.333 0.733-0.883 1.217-1.65 1.45z" fill="url(#SVGID_9_)"/>
<linearGradient id="SVGID_10_" y2="19.188" gradientUnits="userSpaceOnUse" x2="35.706" gradientTransform="matrix(.9655 -.2605 .2605 .9655 -.00030711 .000068218)" y1="19.188" x1="14.111">
	<stop stop-color="#A5D146" offset="0"/>
	<stop stop-color="#8FB93B" offset=".2784"/>
	<stop stop-color="#577D20" offset=".8627"/>
	<stop stop-color="#496E19" offset="1"/>
</linearGradient>
<path fill-rule="evenodd" clip-rule="evenodd" d="m33.9 8.55c-0.333 0.2-0.55 0.434-0.65 0.7-0.067 0.133-0.1 0.25-0.1 0.35l1.1-0.55c0.267-0.133 0.633-0.216 1.1-0.25l3.1-0.55-0.4 0.15c-1.267 0.533-2.2 0.85-2.8 0.95-0.4 0.066-0.867 0.25-1.4 0.55l-0.65 0.45 0.6-0.1c0.367-0.1 1.2-0.05 2.5 0.15 0.567-0.033 1.25-0.2 2.05-0.5-0.633 0.5-1.367 0.8-2.2 0.9-0.3 0.034-1.217 0.017-2.75-0.05-0.533 0-1.2 0.15-2 0.45l-1.05 0.45h0.5c0.4 0 0.733 0.033 1 0.1 1.1 0.267 1.85 0.467 2.25 0.6 0.733 0.267 1.467 0.25 2.2-0.05-0.533 0.267-1.3 0.417-2.3 0.45-0.6 0.033-1.217-0.033-1.85-0.2-0.933-0.267-1.417-0.4-1.45-0.4-0.367-0.033-0.733-0.017-1.1 0.05l-0.4 0.1 0.35 0.1c0.233 0.067 0.7 0.333 1.4 0.8l1.75 0.8-0.55-0.05c-0.233-0.034-0.566-0.133-1-0.3-0.6-0.267-1.05-0.45-1.35-0.55-0.533-0.167-1-0.217-1.4-0.15-0.333 0.033-0.85 0.183-1.55 0.45l-3.8 1.75c-0.367 0.167-1.283 0.55-2.75 1.15-0.108 0.042-0.208 0.083-0.3 0.125l0.3-0.175c0.733-0.433 1.35-0.75 1.85-0.95 1.4-0.566 2.517-1.15 3.35-1.75 0.5-0.367 1.267-0.8 2.3-1.3 0.434-0.333 0.867-0.95 1.3-1.85 0.3-0.367 0.983-0.85 2.05-1.45-0.2 0.133-0.433 0.3-0.7 0.5-0.5 0.433-0.85 0.833-1.05 1.2s-0.316 0.667-0.35 0.9c-0.033 0.133-0.05 0.233-0.05 0.3l0.25-0.35c0.333-0.467 0.85-1.067 1.55-1.8 0.833-0.8 1.534-1.35 2.1-1.65l-0.4 0.3c-0.5 0.4-1.033 0.983-1.6 1.75l-0.75 1.1 0.65-0.35c0.567-0.267 1.1-0.684 1.6-1.25 0.533-0.633 1.083-1.083 1.65-1.35 0.667-0.333 1.317-0.583 1.95-0.75l-2.1 1.05z" fill="url(#SVGID_10_)"/>
<linearGradient id="SVGID_11_" y2="15.776" gradientUnits="userSpaceOnUse" x2="27.031" gradientTransform="matrix(.9656 -.26 .26 .9656 -.00040784 -.00020745)" y1="15.776" x1="13.956">
	<stop stop-color="#A5D146" offset="0"/>
	<stop stop-color="#8FB93B" offset=".2784"/>
	<stop stop-color="#577D20" offset=".8627"/>
	<stop stop-color="#496E19" offset="1"/>
</linearGradient>
<path fill-rule="evenodd" clip-rule="evenodd" d="m25.5 5.9v0.2c0 0.133 0.033 0.25 0.1 0.35l0.45-0.95 0.725-0.825-0.425 0.925 1.05-0.85c0.5-0.267 0.934-0.4 1.3-0.4l-0.9 0.4c-0.3 0.133-0.65 0.45-1.05 0.95l-0.55 0.7 0.95-0.6 1.05-0.4c-0.767 0.434-1.333 0.85-1.7 1.25-0.233 0.3-0.4 0.6-0.5 0.9-0.033 0.133-0.05 0.25-0.05 0.35l0.7-0.7c0.233-0.167 0.517-0.284 0.85-0.35-0.3 0.133-0.733 0.533-1.3 1.2-0.3 0.367-0.7 1-1.2 1.9-0.667 1.233-1.15 2.083-1.45 2.55-0.533 0.867-1.283 1.617-2.25 2.25-0.966 0.633-1.716 0.867-2.25 0.7-0.267-0.067-0.417-0.117-0.45-0.15-0.067-0.033 0.217-0.066 0.85-0.1 1-0.034 2.35-1.083 4.05-3.15 0.7-0.9 1.15-1.716 1.35-2.45 0.167-0.4 0.25-0.617 0.25-0.65 0.066-0.267 0.05-0.733-0.05-1.4-0.033-0.233-0.033-0.433 0-0.6l0.05-0.2 0.15 0.45c0.033 0.167 0.083 0.216 0.15 0.15l-0.05-0.7 0.15-0.75z" fill="url(#SVGID_11_)"/>
<linearGradient id="SVGID_12_" y2="18.978" gradientUnits="userSpaceOnUse" x2="20.357" gradientTransform="matrix(.9533 -.3021 .3021 .9533 .00036842 -.00031802)" y1="18.978" x1="13.984">
	<stop stop-color="#A5D146" offset="0"/>
	<stop stop-color="#8FB93B" offset=".2784"/>
	<stop stop-color="#577D20" offset=".8627"/>
	<stop stop-color="#496E19" offset="1"/>
</linearGradient>
<path fill-rule="evenodd" clip-rule="evenodd" d="m23.2 8.85c0.033 3.2-0.367 5.066-1.2 5.6l-1.25 0.95 0.7-0.4c0.6-0.267 1.25-0.383 1.95-0.35 0.867 0 1.583 0.167 2.15 0.5 0.6 0.3 0.917 0.7 0.95 1.2 0 0.433-0.333 0.667-1 0.7-0.533 0-1.167-0.117-1.9-0.35-0.533-0.167-1.167-0.2-1.9-0.1-0.7 0.133-1.133 0.3-1.3 0.5-0.167 0.233-0.483-0.4-0.95-1.9 0.867-0.633 1.383-1.034 1.55-1.2 0.4-0.4 0.617-0.85 0.65-1.35 0.033-0.467 0-0.933-0.1-1.4-0.133-0.6-0.2-1.017-0.2-1.25-0.033-0.667 0.267-1.4 0.9-2.2 0.6-0.767 0.917-0.417 0.95 1.05z" fill="url(#SVGID_12_)"/>
<path fill-rule="evenodd" clip-rule="evenodd" d="m22.6 15.35c0.033 0.367 0.367 0.816 1 1.35-1-0.1-1.6-0.217-1.8-0.35l-2.3-1.5c0.7-0.3 1.3-0.733 1.8-1.3l0.05 0.3c0.1 0.2 0.267 0.25 0.5 0.15 0.4-0.2 0.733-0.65 1-1.35l-0.2 0.7c-0.033 0.433 0.167 0.583 0.6 0.45 0.159-0.047 0.309-0.114 0.45-0.2-0.232 0.375-0.299 0.575-0.2 0.6l0.35 0.1c-0.067 0.167-0.217 0.284-0.45 0.35-0.567 0.067-0.833 0.3-0.8 0.7zm1.4-2.2c0.267-0.3 0.533-0.617 0.8-0.95-0.279 0.66-0.646 1.127-1.1 1.4 0.08-0.129 0.18-0.279 0.3-0.45z" fill="#5C8A20"/>
<radialGradient id="SVGID_13_" gradientUnits="userSpaceOnUse" cy="2.1675" cx="20.472" gradientTransform="matrix(.5705 .8213 .8213 -.5705 -3.5601 2.4727)" r="20.639">
	<stop stop-color="#F9584D" offset="0"/>
	<stop stop-color="#E14E41" offset=".2549"/>
	<stop stop-color="#A53521" offset=".7922"/>
	<stop stop-color="#8C2A14" offset="1"/>
</radialGradient>
<path fill-rule="evenodd" clip-rule="evenodd" d="m13.3 12.1c4.1-0.333 7.717 1.35 10.85 5.05 3.167 3.767 3.967 7.583 2.4 11.45-1.567 3.933-3.95 6.4-7.15 7.4-2 0.6-5.033 0.667-9.1 0.2-1.5-0.2-3.7 0.666-6.6 2.6-1.352 0.912-2.585 1.837-3.7 2.775 0.983-0.873 1.85-1.981 2.6-3.325 1.633-2.9 1.8-5.684 0.5-8.35-1.933-4.067-1.967-7.9-0.1-11.5 1.967-3.8 5.4-5.9 10.3-6.3z" fill="url(#SVGID_13_)"/>
<linearGradient id="SVGID_14_" y2="27.894" gradientUnits="userSpaceOnUse" x2="-13.263" gradientTransform="matrix(.7094 -.7048 .7048 .7094 -.00043797 -.00015062)" y1="27.894" x1="-29.262">
	<stop stop-color="#FFF7DE" offset="0"/>
	<stop stop-color="#EADFCC" stop-opacity=".9216" offset=".4941"/>
	<stop stop-color="#D1C3B6" stop-opacity=".8275" offset="1"/>
</linearGradient>
<path fill-rule="evenodd" clip-rule="evenodd" d="m12.45 29.25c0.066 0.167 0.017 0.667-0.15 1.5-0.066 0.566 0.133 0.917 0.6 1.05 0.2 0.066 0.75 0.267 1.65 0.601 0.667 0.233 1.267 0.383 1.8 0.449 0.667 0.067 0.867 0.267 0.6 0.601-0.233 0.333-0.667 0.583-1.3 0.75-0.6 0.133-1 0.35-1.2 0.649-0.2 0.267 0 0.467 0.6 0.601 0.434 0.066 0.583 0.233 0.45 0.5-0.1 0.233-0.417 0.434-0.95 0.6-0.966-0.033-2.383-0.149-4.25-0.35-1.5-0.2-3.7 0.666-6.6 2.6-1.352 0.912-2.585 1.837-3.7 2.775 0.983-0.873 1.85-1.981 2.6-3.325 1.633-2.9 1.8-5.684 0.5-8.35-0.633-1.301-1.05-2.668-1.25-4.101 0-0.3 0.05-0.483 0.15-0.55 0.1-0.1 0.217-0.05 0.35 0.15 0.667 0.867 1.05 1.333 1.15 1.4 0.367 0.3 0.85 0.334 1.45 0.101 0.466-0.167 1.1-0.517 1.9-1.051 0.633-0.3 1.117-0.1 1.45 0.601 0.034 0.033 0.15 0.533 0.35 1.5 0.1 0.467 0.4 0.767 0.9 0.899 0.3 0.101 0.9 0.101 1.8 0 0.633-0.1 1 0.034 1.1 0.4z" fill="url(#SVGID_14_)"/>
		<use opacity=".1602" style="enable-background:new" xlink:href="#flash0.ai_x5F_5_x2F_Layer_12_x2F__x3C_Path_x3E__x5F_1" transform="matrix(1 0 0 -1 17.35 24.15)" height="11" width="6.435" y="-11"/>
		<use opacity=".4297" style="enable-background:new" xlink:href="#flash0.ai_x5F_5_x2F_Layer_12_x2F__x3C_Path_x3E_" transform="matrix(1 0 0 -1 20.5 18.65)" height="9.55" width="6.745" y="-9.55"/>
<use opacity=".1602" style="enable-background:new" xlink:href="#flash0.ai_x5F_5_x2F_Layer_12_x2F__x3C_Path_x3E__x5F_5" transform="matrix(1 0 0 -1 4.0498 20.15)" height="18.45" width="23.226" y="-18.45"/>
<use opacity=".1992" style="enable-background:new" xlink:href="#flash0.ai_x5F_5_x2F_Layer_12_x2F__x3C_Path_x3E__x5F_4" transform="matrix(1 0 0 -1 17.95 19.95)" height="2.717" width="4.16" y="-2.711" x="0.015"/>
<use opacity=".1992" style="enable-background:new" xlink:href="#flash0.ai_x5F_5_x2F_Layer_12_x2F__x3C_Path_x3E__x5F_3" transform="matrix(1 0 0 -1 20.7 23.5)" height="1.558" width="1.719" y="-1.512" x="-0.017"/>
<use opacity=".1992" style="enable-background:new" xlink:href="#flash0.ai_x5F_5_x2F_Layer_12_x2F__x3C_Path_x3E__x5F_2" transform="matrix(1 0 0 -1 12.3 25.6)" height="2.531" width="2.857" y="-2.527"/>
<use opacity=".1289" style="enable-background:new" xlink:href="#flash0.ai_x5F_5_x2F_Layer_12_x2F__x3C_Path_x3E__x5F_1_x5F_0" transform="matrix(1 0 0 -1 3.1499 13.9)" height="14.391" width="13.936" y="-14.369" x="-0.012"/>
<use opacity=".2109" style="enable-background:new" xlink:href="#flash0.ai_x5F_5_x2F_Layer_12_x2F__x3C_Path_x3E__x5F_0" transform="matrix(1 0 0 -1 5.1001 16.35)" height="5.647" width="4.706" y="-5.656" x="-0.084"/>
</svg>
